# xmcd
# 
# Track frame offsets:
#     150
#     17187
#     38762
#     70095
# 
# Disc length: 1165
# 
# Revision: 1
# Processed by: cddbd v1.5.2PL0 Copyright (c) Steve Scherf et al.
# Submitted via: BonkEnc v1.0.8
# 
DISCID=2b048b04
DTITLE=スピッツ - シロクマ/ビギナー
DYEAR=2010
DGENRE=Rock
TTITLE0=シロクマ
TTITLE1=ビギナー
TTITLE2=ナイフ Live from SPITZ JAMBOREE TOUR 2010
TTITLE3=シロクマ Live from SPITZ JAMBOREE TOUR 2010
EXTD=
EXTT0=
EXTT1=
EXTT2=
EXTT3=
PLAYORDER=
